<?xml version="1.0" encoding="UTF-8"?>
<!-- Created with Inkscape (http://www.inkscape.org/) -->
<svg width="205mm" height="205mm" version="1.1" viewBox="0 0 205 205" xmlns="http://www.w3.org/2000/svg" xmlns:cc="http://creativecommons.org/ns#" xmlns:dc="http://purl.org/dc/elements/1.1/" xmlns:osb="http://www.openswatchbook.org/uri/2009/osb" xmlns:rdf="http://www.w3.org/1999/02/22-rdf-syntax-ns#" xmlns:xlink="http://www.w3.org/1999/xlink"><defs><pattern id="pattern2538" patternTransform="translate(-2.0357 79.256)" xlink:href="#Wavy-1"/><pattern id="Wavy-1" width="30.066020" height="5.1805778" patternUnits="userSpaceOnUse"><path d="m7.597 0.061c-2.518-0.248-4.941 0.241-7.607 1.727v1.273c2.783-1.63 5.183-2.009 7.482-1.781 2.298 0.228 4.497 1.081 6.781 1.938 4.567 1.713 9.551 3.458 15.813-0.157l-4e-3 -1.273c-6.44 3.709-10.816 1.982-15.371 0.273-2.278-0.854-4.576-1.75-7.094-2z"/></pattern></defs><metadata><rdf:RDF><cc:Work rdf:about=""><dc:format>image/svg+xml</dc:format><dc:type rdf:resource="http://purl.org/dc/dcmitype/StillImage"/><dc:title/></cc:Work></rdf:RDF></metadata><g transform="translate(0,-92)" stroke="#000" stroke-linecap="round" stroke-linejoin="round" stroke-width="5"><rect x="2.5" y="94.5" width="100" height="200" fill="url(#pattern2538)"/><rect x="102.5" y="94.5" width="100" height="100" fill="#fff"/><rect x="102.5" y="194.5" width="100" height="100" fill="#fff"/></g></svg>
